<svg width="182" height="253" xmlns="http://www.w3.org/2000/svg" version="1.1">
 <g id="Layer_1">
  <title>Layer 1</title>
  <path transform="rotate(90, 91.2762, 161.939)" id="svg_3" d="m31.77637,161.93845c0,-30.1926 0,-60.3852 0,-90.57781c6.98111,0 13.96223,0 20.94334,0c0,60.3852 0,120.77041 0,181.15562c-6.98111,0 -13.96222,0 -20.94334,0c0,-30.19262 0,-60.3852 0,-90.57781l0,0.00001zm30.93901,0c0,-30.1926 0,-60.3852 0,-90.57781c5.1084,-1.50379 7.79153,1.12318 6.67547,6.09599c0.07544,27.6754 0.15087,55.35081 0.22631,83.0262c12.91586,-9.34222 17.80924,-25.51804 21.81167,-40.29576c2.29709,9.62375 5.95045,21.34374 16.43934,24.48007c9.99725,3.03791 18.8511,-6.48502 18.74687,-16.2413c1.74612,-12.46751 1.98774,-25.42009 -0.69098,-37.7501c-2.50791,-7.80077 -10.02452,-14.24287 -18.3839,-13.72745c-6.87948,-3.20595 -14.59517,6.68645 -5.77843,10.30714c7.41472,7.97414 -1.20421,21.62516 -11.51258,18.42887c-9.99407,-2.16756 -12.652,-15.50576 -6.86947,-23.04635c8.29487,-10.95717 23.58575,-12.33904 36.15292,-10.7442c16.35231,1.88319 28.78982,16.80122 30.55292,32.93006c2.25145,14.39313 -1.41832,30.65477 -13.32225,39.85177c-9.98099,8.50656 -24.65208,9.56878 -36.38022,4.37186c-2.85222,4.34376 -5.70446,8.68751 -8.55668,13.03126c2.80228,4.23809 5.60455,8.47618 8.40681,12.71426c14.20183,-6.44341 32.76515,-3.09361 42.15369,10.01573c13.22331,17.65712 10.64394,46.03737 -6.53205,60.12859c-10.78773,8.91702 -25.95035,8.94768 -38.77082,5.38305c-9.70229,-2.62079 -19.16811,-12.17041 -16.16757,-23.05415c1.51379,-9.48469 14.40037,-13.05298 20.67848,-5.99411c8.54854,7.81733 -3.84187,15.69021 -3.20683,23.22497c9.51217,7.29758 24.91951,0.42707 27.13376,-11.21272c3.52034,-12.77951 2.69357,-26.36403 0.97188,-39.35834c-0.92327,-8.73614 -8.43169,-17.54346 -17.74021,-15.10696c-9.79157,2.25061 -14.67877,12.56908 -16.35597,21.72914c-2.05613,6.70831 -2.71202,-6.41388 -4.31663,-8.56205c-3.33558,-10.76662 -9.15477,-21.34116 -18.11339,-28.12909c-0.92289,2.90321 -0.0835,6.52471 -0.37877,9.73397c-0.07151,26.30843 -0.14302,52.61684 -0.21452,78.92527c-5.11146,1.50468 -7.78894,-1.12421 -6.65887,-6.09603c0,-28.16058 0,-56.32118 0,-84.48178l-0.00001,0.00001z" stroke="#000" fill="#000000"/>
  <path transform="rotate(-90.1234, 90.943, 59.6052)" id="svg_5" d="m31.44306,59.60511c0,-30.1926 0,-60.3852 0,-90.57781c6.98111,0 13.96223,0 20.94334,0c0,60.3852 0,120.77041 0,181.15562c-6.98111,0 -13.96222,0 -20.94334,0c0,-30.19262 0,-60.3852 0,-90.57781l0,0.00001zm30.93901,0c0,-30.1926 0,-60.3852 0,-90.57781c5.1084,-1.50379 7.79153,1.12318 6.67547,6.09599c0.07544,27.6754 0.15087,55.35081 0.22631,83.0262c12.91586,-9.34222 17.80924,-25.51804 21.81167,-40.29576c2.29709,9.62375 5.95045,21.34374 16.43934,24.48007c9.99725,3.03791 18.8511,-6.48502 18.74687,-16.2413c1.74612,-12.46751 1.98774,-25.42009 -0.69098,-37.7501c-2.50791,-7.80077 -10.02452,-14.24287 -18.3839,-13.72745c-6.87948,-3.20595 -14.59517,6.68645 -5.77843,10.30714c7.41472,7.97414 -1.20421,21.62516 -11.51258,18.42887c-9.99407,-2.16756 -12.652,-15.50576 -6.86947,-23.04635c8.29487,-10.95717 23.58575,-12.33904 36.15292,-10.7442c16.35231,1.88319 28.78982,16.80122 30.55292,32.93006c2.25145,14.39313 -1.41832,30.65477 -13.32225,39.85177c-9.98099,8.50656 -24.65208,9.56878 -36.38022,4.37186c-2.85222,4.34376 -5.70446,8.68751 -8.55668,13.03126c2.80228,4.23809 5.60455,8.47618 8.40681,12.71426c14.20183,-6.44341 32.76515,-3.09361 42.15369,10.01573c13.22331,17.65712 10.64394,46.03737 -6.53205,60.12859c-10.78773,8.91702 -25.95035,8.94768 -38.77082,5.38305c-9.70229,-2.62079 -19.16811,-12.17041 -16.16757,-23.05415c1.51379,-9.48469 14.40037,-13.05298 20.67848,-5.99411c8.54854,7.81733 -3.84187,15.69021 -3.20683,23.22497c9.51217,7.29758 24.91951,0.42707 27.13376,-11.21272c3.52034,-12.77951 2.69357,-26.36403 0.97188,-39.35834c-0.92327,-8.73614 -8.43169,-17.54346 -17.74021,-15.10696c-9.79157,2.25061 -14.67877,12.56908 -16.35597,21.72914c-2.05613,6.70831 -2.71202,-6.41388 -4.31663,-8.56205c-3.33558,-10.76662 -9.15477,-21.34116 -18.11339,-28.12909c-0.92289,2.90321 -0.0835,6.52471 -0.37877,9.73397c-0.07151,26.30843 -0.14302,52.61684 -0.21452,78.92527c-5.11146,1.50468 -7.78894,-1.12421 -6.65887,-6.09603c0,-28.16058 0,-56.32118 0,-84.48178l-0.00001,0.00001z" stroke="#000" fill="#000000"/>
 </g>
</svg>