<svg xmlns="http://www.w3.org/2000/svg" height="3576" width="4320"><g xmlns="http://www.w3.org/2000/svg" transform="matrix(0 1 -1 0 4320 0)"><path d="M1129.721 378.545 C 1113.751 396.193,1094.691 422.344,1036.100 507.000 C 1000.021 559.128,949.960 623.645,889.210 696.308 C 757.024 854.415,722.739 914.041,695.914 1032.472 C 681.613 1095.607,674.729 1119.000,670.451 1119.000 C 660.269 1119.000,609.400 1045.939,569.223 973.611 C 529.871 902.768,499.900 797.208,481.574 664.910 C 472.268 597.727,465.132 573.546,449.883 557.515 C 440.349 547.492,437.181 546.000,425.436 546.000 C 405.036 546.000,387.486 556.593,375.815 575.952 C 355.272 610.027,348.132 657.544,348.083 760.500 C 348.045 842.246,350.813 873.330,361.377 909.784 C 384.052 988.033,447.298 1100.145,534.403 1216.500 C 628.269 1341.887,645.549 1380.989,651.054 1480.463 C 656.008 1569.980,684.655 1728.827,707.818 1795.220 C 718.572 1826.043,715.504 1832.525,695.101 1822.089 C 656.819 1802.507,555.453 1700.857,517.290 1643.780 C 491.508 1605.220,470.938 1560.675,439.121 1474.504 C 424.501 1434.906,405.780 1389.006,397.519 1372.504 C 380.216 1337.938,370.281 1329.000,349.161 1329.000 C 313.505 1329.000,293.809 1379.755,297.899 1461.099 C 301.456 1531.836,321.938 1607.197,356.987 1678.500 C 438.561 1844.452,565.225 1975.950,748.500 2084.955 C 789.411 2109.287,859.428 2157.199,889.593 2181.504 C 974.722 2250.094,1013.310 2280.356,1104.000 2349.646 C 1215.335 2434.708,1259.492 2470.797,1273.189 2487.919 C 1280.895 2497.553,1282.499 2502.477,1283.448 2519.419 C 1284.418 2536.717,1283.638 2540.687,1277.820 2548.067 C 1272.055 2555.379,1269.551 2556.388,1260.715 2554.954 C 1235.266 2550.824,1208.131 2530.384,1138.383 2462.802 C 1038.803 2366.316,1007.971 2350.285,867.412 2321.908 C 775.958 2303.446,743.858 2294.898,647.233 2263.282 C 604.736 2249.377,567.123 2238.000,563.649 2238.000 C 557.983 2238.000,557.548 2239.150,559.427 2249.167 C 568.106 2295.431,667.708 2521.534,705.173 2580.021 C 752.472 2653.860,833.249 2737.564,902.738 2784.743 C 950.493 2817.166,1000.211 2833.576,1109.001 2852.823 C 1166.772 2863.044,1205.480 2874.138,1213.223 2882.693 C 1224.189 2894.811,1227.409 2915.515,1230.300 2992.500 C 1235.635 3134.565,1244.080 3160.776,1327.215 3293.310 C 1373.089 3366.441,1386.459 3390.890,1398.254 3423.207 C 1413.287 3464.401,1415.869 3482.382,1419.111 3568.500 C 1424.340 3707.414,1435.006 3746.102,1483.090 3800.574 C 1505.800 3826.300,1521.513 3849.467,1533.580 3875.014 C 1552.258 3914.554,1589.988 3942.724,1638.000 3952.975 C 1659.924 3957.657,1678.644 3958.426,1771.500 3958.460 C 1885.289 3958.502,1918.069 3955.989,1956.000 3944.317 C 2000.304 3930.684,2022.361 3912.078,2043.412 3870.578 C 2053.311 3851.063,2063.186 3837.740,2083.943 3815.895 C 2099.036 3800.010,2114.768 3780.338,2118.902 3772.181 C 2136.486 3737.479,2147.947 3678.503,2147.990 3622.500 C 2148.090 3490.217,2170.534 3407.010,2228.509 3324.000 C 2268.257 3267.086,2286.016 3238.873,2299.035 3211.952 C 2327.527 3153.036,2333.609 3122.216,2337.010 3019.500 C 2339.786 2935.662,2342.525 2915.584,2353.878 2895.830 C 2367.162 2872.716,2399.670 2860.208,2469.000 2851.534 C 2551.498 2841.212,2589.695 2830.633,2643.107 2803.312 C 2687.799 2780.451,2722.016 2755.584,2762.555 2716.500 C 2836.905 2644.821,2870.406 2593.132,2935.069 2450.335 C 2983.012 2344.459,3019.065 2251.892,3017.397 2238.957 L 3016.500 2232.007 2977.500 2245.722 C 2876.882 2281.105,2859.636 2286.694,2816.549 2297.888 C 2791.222 2304.468,2744.175 2315.228,2712.000 2321.800 C 2567.375 2351.341,2533.201 2369.024,2429.721 2467.858 C 2376.098 2519.074,2354.161 2537.113,2333.003 2547.392 C 2316.673 2555.326,2306.766 2553.408,2297.113 2540.441 C 2291.726 2533.205,2291.487 2531.049,2294.765 2519.338 C 2300.915 2497.375,2323.286 2471.163,2366.840 2434.892 C 2450.266 2365.417,2593.871 2252.781,2700.000 2173.582 C 2763.073 2126.513,2784.346 2111.948,2886.230 2046.071 C 2968.013 1993.190,3060.472 1910.248,3117.059 1839.000 C 3167.323 1775.713,3217.554 1691.220,3244.106 1625.295 C 3277.681 1541.931,3289.112 1419.293,3268.013 1368.798 C 3262.755 1356.212,3244.575 1335.969,3233.292 1330.134 C 3206.706 1316.386,3177.786 1354.174,3145.764 1444.500 C 3112.281 1538.948,3089.468 1593.694,3068.719 1629.388 C 3029.487 1696.878,2897.625 1833.000,2871.479 1833.000 C 2864.921 1833.000,2868.648 1803.465,2881.410 1754.305 C 2899.145 1685.993,2906.696 1637.321,2914.580 1540.500 C 2923.100 1435.876,2932.049 1393.440,2956.492 1341.757 C 2974.436 1303.817,2994.585 1273.889,3044.864 1210.500 C 3114.691 1122.466,3136.559 1088.458,3169.463 1016.729 C 3194.584 961.964,3212.478 914.527,3220.580 881.215 C 3230.756 839.377,3235.182 765.414,3231.072 705.868 C 3224.334 608.212,3204.911 559.704,3168.137 548.686 C 3153.990 544.448,3144.313 546.600,3132.384 556.638 C 3113.717 572.345,3102.380 607.530,3087.172 696.957 C 3070.555 794.675,3051.169 870.138,3029.634 920.936 C 2997.565 996.584,2914.585 1130.042,2903.774 1123.360 C 2899.402 1120.658,2889.781 1085.063,2878.507 1029.874 C 2855.432 916.920,2842.051 893.973,2683.816 696.000 C 2601.548 593.073,2558.803 535.916,2511.056 465.000 C 2443.760 365.046,2411.221 342.179,2380.292 373.108 C 2367.750 385.650,2365.017 402.692,2369.586 439.872 C 2378.344 511.133,2406.824 565.777,2510.117 709.500 C 2531.462 739.200,2564.449 785.100,2583.421 811.500 C 2653.098 908.459,2714.129 1003.628,2727.846 1036.710 C 2748.023 1085.375,2766.133 1160.034,2773.496 1224.913 C 2775.743 1244.708,2773.034 1266.000,2768.269 1266.000 C 2761.498 1266.000,2744.441 1249.856,2724.873 1224.927 C 2684.933 1174.043,2649.875 1134.783,2599.478 1084.500 C 2507.226 992.459,2420.935 919.416,2383.182 901.412 C 2360.583 890.635,2337.261 888.168,2329.677 895.752 C 2318.053 907.376,2331.308 955.779,2358.508 1001.035 C 2387.904 1049.943,2491.764 1179.437,2552.857 1243.351 C 2605.359 1298.276,2653.331 1363.104,2695.274 1435.809 C 2726.297 1489.585,2745.267 1546.303,2751.626 1604.290 C 2757.795 1660.545,2745.306 1736.365,2719.667 1798.302 C 2676.682 1902.143,2569.956 2082.000,2551.323 2082.000 C 2543.996 2082.000,2542.493 2067.259,2542.760 1998.000 C 2543.487 1809.328,2561.360 1729.924,2628.178 1618.500 C 2657.409 1569.756,2672.458 1537.873,2676.503 1516.121 C 2680.475 1494.765,2678.456 1484.183,2668.514 1474.242 C 2662.261 1467.988,2658.453 1467.000,2640.616 1467.000 C 2610.525 1467.000,2590.405 1477.948,2551.331 1515.584 C 2497.845 1567.100,2458.496 1622.596,2435.490 1678.962 C 2427.943 1697.452,2418.433 1715.180,2412.793 1721.268 C 2403.638 1731.152,2402.701 1731.490,2396.293 1727.221 C 2392.557 1724.732,2384.007 1717.426,2377.294 1710.986 C 2358.560 1693.013,2330.605 1687.071,2308.410 1696.344 C 2302.692 1698.733,2296.471 1704.072,2294.587 1708.209 C 2289.548 1719.267,2300.515 1750.534,2323.892 1791.757 C 2357.642 1851.274,2387.827 1913.299,2393.945 1935.708 C 2411.684 2000.676,2405.435 2101.792,2380.660 2150.683 C 2361.165 2189.155,2292.693 2280.578,2289.822 2271.967 C 2289.302 2270.407,2294.847 2248.288,2302.144 2222.815 C 2334.525 2109.777,2338.049 2074.876,2323.935 2007.000 C 2311.469 1947.054,2293.362 1890.715,2253.146 1786.750 C 2230.083 1727.128,2228.571 1710.256,2237.768 1615.147 C 2246.696 1522.823,2247.415 1512.437,2247.552 1473.889 C 2247.737 1421.584,2240.712 1410.000,2208.806 1410.000 C 2169.113 1410.000,2134.479 1452.091,2113.769 1525.500 C 2085.503 1625.687,2091.335 1701.575,2138.878 1852.272 C 2187.408 2006.093,2195.400 2113.293,2165.399 2208.000 C 2136.444 2299.404,2067.243 2376.112,1981.558 2411.783 C 1878.636 2454.629,1735.280 2459.267,1623.000 2423.382 C 1592.557 2413.652,1555.021 2395.998,1533.000 2381.052 C 1513.141 2367.574,1477.206 2332.111,1462.520 2311.500 C 1414.828 2244.562,1391.929 2150.437,1395.859 2037.485 C 1397.756 1982.965,1400.497 1970.157,1430.955 1873.500 C 1467.287 1758.201,1475.958 1714.573,1475.974 1647.000 C 1475.990 1576.974,1467.207 1527.511,1447.626 1487.355 C 1420.179 1431.067,1379.318 1400.298,1344.613 1409.783 C 1328.900 1414.077,1321.144 1425.298,1318.332 1447.804 C 1315.851 1467.662,1320.139 1500.663,1335.123 1577.030 C 1355.613 1681.455,1354.035 1692.678,1295.977 1855.500 C 1257.709 1962.820,1249.492 1996.401,1246.062 2059.500 C 1242.839 2118.786,1252.113 2169.134,1279.888 2243.131 C 1288.891 2267.118,1295.862 2287.076,1295.379 2287.483 C 1292.608 2289.818,1232.009 2216.040,1218.879 2194.346 C 1178.940 2128.359,1158.578 2036.089,1171.057 1977.635 C 1177.745 1946.309,1199.154 1894.681,1234.766 1824.000 C 1266.476 1761.063,1282.644 1719.907,1279.523 1710.072 C 1274.715 1694.922,1241.564 1687.677,1215.963 1696.180 C 1206.752 1699.239,1196.619 1705.744,1189.303 1713.295 C 1162.743 1740.704,1158.348 1737.766,1138.170 1679.108 C 1120.594 1628.016,1088.736 1578.108,1044.222 1531.929 C 1002.826 1488.986,970.360 1470.820,929.499 1467.738 C 910.988 1466.342,908.920 1466.807,901.749 1473.978 C 887.154 1488.573,893.175 1512.968,928.163 1581.000 C 979.207 1680.253,989.630 1702.825,1003.022 1743.113 C 1033.933 1836.102,1040.542 1907.573,1029.997 2034.809 C 1026.011 2082.904,1024.029 2096.250,1021.308 2093.309 C 1016.365 2087.969,946.306 1978.029,927.384 1945.921 C 878.839 1863.547,845.385 1778.905,832.358 1705.500 C 825.349 1666.000,825.295 1597.491,832.247 1565.198 C 853.623 1465.915,909.125 1375.173,1045.527 1216.500 C 1110.437 1140.991,1181.250 1053.610,1200.483 1025.289 C 1231.396 979.767,1251.088 920.788,1241.743 901.714 C 1232.108 882.047,1218.528 884.235,1175.709 912.351 C 1121.102 948.208,1061.433 998.871,985.907 1073.505 C 925.942 1132.763,894.646 1168.217,861.010 1215.000 C 830.495 1257.441,819.801 1269.000,811.047 1269.000 C 798.265 1269.000,798.088 1242.425,810.331 1161.415 C 826.309 1055.689,853.130 1006.222,1026.789 762.205 C 1107.576 648.687,1139.441 600.146,1170.087 543.914 C 1192.750 502.331,1211.979 448.995,1214.231 421.467 C 1215.703 403.476,1215.674 403.399,1201.787 387.953 C 1187.113 371.632,1167.355 360.000,1154.305 360.000 C 1148.554 360.000,1142.091 364.875,1129.721 378.545 " stroke="none" fill="black" fill-rule="evenodd" /></g></svg>